<svg width="30" height="30" viewBox="0 0 30 30" fill="none" xmlns="http://www.w3.org/2000/svg">
<path d="M28.9159 15.7764L15.7835 28.9013C15.0511 29.6341 14.0878 30 13.1283 30C12.1688 30 11.2074 29.6341 10.475 28.9013L1.09886 19.5268C-0.365974 18.0624 -0.366442 15.6875 1.09839 14.2236L14.2233 1.09874C14.9557 0.366327 15.915 0 16.8745 0H28.1249C28.6183 0 29.1036 0.195002 29.458 0.549374C29.7648 0.856169 30.0001 1.25507 30.0001 1.676V12.8193C29.9999 13.8786 29.7261 14.9661 28.9159 15.7764Z" fill="white"/>
<path d="M20.75 13.5C18.6791 13.5 17 11.8209 17 9.75C17 7.67906 18.6791 6 20.75 6C22.8209 6 24.5 7.67906 24.5 9.75C24.5 11.8209 22.8209 13.5 20.75 13.5Z" fill="#212121"/>
</svg>
