<svg width="24" height="30" viewBox="0 0 24 30" fill="none" xmlns="http://www.w3.org/2000/svg">
<path fill-rule="evenodd" clip-rule="evenodd" d="M18 0H6V4H8V11L0.59337 23.0358C0.20541 23.6662 0 24.3919 0 25.1322V26C0 28.2091 1.79086 30 4 30H20C22.2091 30 24 28.2091 24 26V25.1322C24 24.3919 23.7946 23.6662 23.4066 23.0358L16 11V4H18V0ZM20 25C20 26.1046 19.1046 27 18 27C16.8954 27 16 26.1046 16 25C16 23.8954 16.8954 23 18 23C19.1046 23 20 23.8954 20 25ZM12 23C13.6569 23 15 21.6569 15 20C15 18.3431 13.6569 17 12 17C10.3431 17 9 18.3431 9 20C9 21.6569 10.3431 23 12 23Z" fill="white"/>
</svg>
