<svg width="20" height="20" viewBox="0 0 20 20" fill="none" xmlns="http://www.w3.org/2000/svg">
<path fill-rule="evenodd" clip-rule="evenodd" d="M-4.37116e-07 9.99996C-3.18401e-07 12.7158 0.0114997 13.0564 0.0601664 14.123C0.108708 15.1874 0.277791 15.9143 0.525 16.5504C0.780542 17.208 1.12246 17.7656 1.67837 18.3216C2.23437 18.8775 2.79204 19.2195 3.44962 19.475C4.08571 19.7222 4.81262 19.8913 5.877 19.9398C6.94362 19.9885 7.28417 20 10 20C12.7158 20 13.0564 19.9885 14.123 19.9398C15.1874 19.8913 15.9143 19.7222 16.5504 19.475C17.208 19.2195 17.7656 18.8775 18.3216 18.3216C18.8775 17.7656 19.2195 17.208 19.475 16.5504C19.7222 15.9143 19.8913 15.1874 19.9398 14.123C19.9885 13.0564 20 12.7158 20 9.99996C20 7.28417 19.9885 6.94362 19.9398 5.87704C19.8913 4.81262 19.7222 4.08571 19.475 3.44962C19.2195 2.79204 18.8775 2.23433 18.3216 1.67837C17.7656 1.12246 17.208 0.7805 16.5504 0.524957C15.9143 0.277791 15.1874 0.108707 14.123 0.0601648C13.0564 0.0114988 12.7158 -5.55827e-07 10 -4.37114e-07C7.28417 -3.18401e-07 6.94362 0.0114991 5.877 0.0601651C4.81262 0.108707 4.08571 0.277792 3.44962 0.524958C2.79204 0.7805 2.23437 1.12246 1.67837 1.67838C1.12246 2.23433 0.780541 2.79204 0.524999 3.44962C0.277791 4.08571 0.108708 4.81262 0.060166 5.87704C0.0114994 6.94363 -5.55827e-07 7.28417 -4.37116e-07 9.99996ZM1.80176 9.99999C1.80176 7.32991 1.81197 7.01362 1.86009 5.95916C1.90455 4.9842 2.06742 4.4547 2.20438 4.10233C2.3858 3.63553 2.60251 3.30241 2.95247 2.95249C3.30234 2.60258 3.63547 2.38587 4.10226 2.20445C4.45463 2.06753 4.98413 1.90462 5.95909 1.86016C7.01355 1.81203 7.32984 1.80183 9.99996 1.80183C12.6701 1.80183 12.9864 1.81203 14.0408 1.86016C15.0158 1.90462 15.5453 2.06753 15.8977 2.20445C16.3645 2.38587 16.6976 2.60257 17.0475 2.95249C17.3974 3.30241 17.6141 3.63553 17.7955 4.10232C17.9325 4.4547 18.0954 4.9842 18.1398 5.95916C18.188 7.01349 18.1982 7.3297 18.1982 9.99999C18.1982 12.6704 18.188 12.9866 18.1398 14.0409C18.0954 15.0159 17.9325 15.5454 17.7955 15.8977C17.6141 16.3645 17.3974 16.6976 17.0475 17.0476C16.6976 17.3974 16.3645 17.6142 15.8977 17.7956C15.5453 17.9326 15.0158 18.0954 14.0408 18.1399C12.9864 18.188 12.6701 18.1982 9.99997 18.1982C7.32984 18.1982 7.01355 18.188 5.95909 18.1399C4.98413 18.0955 4.45463 17.9326 4.10226 17.7956C3.63547 17.6142 3.30234 17.3975 2.95247 17.0476C2.60251 16.6976 2.3858 16.3645 2.20438 15.8977C2.06742 15.5454 1.90455 15.0159 1.86009 14.0409C1.81197 12.9865 1.80176 12.6702 1.80176 9.99999ZM10.0023 15.1348C7.16623 15.1348 4.86719 12.8357 4.86719 9.9996C4.86719 7.16356 7.16623 4.86451 10.0023 4.86451C12.8384 4.86451 15.1374 7.16356 15.1374 9.9996C15.1374 12.8357 12.8384 15.1348 10.0023 15.1348ZM13.3317 10.0001C13.3317 11.8411 11.8393 13.3334 9.99837 13.3334C8.15741 13.3334 6.66504 11.8411 6.66504 10.0001C6.66504 8.15914 8.15741 6.66677 9.99837 6.66677C11.8393 6.66677 13.3317 8.15914 13.3317 10.0001ZM5.86191 4.66186C5.86191 3.99907 5.32471 3.46182 4.66196 3.46182C3.99921 3.46182 3.46191 3.99907 3.46191 4.66186C3.46191 5.32457 3.99921 5.86182 4.66196 5.86182C5.32471 5.86182 5.86191 5.32457 5.86191 4.66186Z" fill="white"/>
</svg>
