<svg width="12" height="9" viewBox="0 0 12 9" fill="none" xmlns="http://www.w3.org/2000/svg">
<path d="M0.639205 0.65918C0.290762 0.65918 0 0.945681 0 1.29412V8.20179C0 8.55023 0.290762 8.841 0.639205 8.841H11.3608C11.7092 8.841 12 8.55023 12 8.20179V1.29412C12 0.945681 11.7092 0.65918 11.3608 0.65918H0.639205ZM1.04403 1.20463H10.956L6 5.06969L1.04403 1.20463ZM0.545455 1.50293L4.40199 4.51145L0.545455 7.94185V1.50293ZM11.4545 1.50293V7.94185L7.59801 4.51145L11.4545 1.50293ZM4.84091 4.85236L5.83381 5.62793C5.88147 5.66455 5.93989 5.68441 6 5.68441C6.06011 5.68441 6.11853 5.66455 6.16619 5.62793L7.15909 4.85236L11.0327 8.29554H0.96733L4.84091 4.85236Z" fill="black"/>
</svg>
