<svg width="25" height="25" viewBox="0 0 25 25" fill="none" xmlns="http://www.w3.org/2000/svg">
<path d="M9.3737 22.9163C9.94899 22.9163 10.4154 22.45 10.4154 21.8747C10.4154 21.2994 9.94899 20.833 9.3737 20.833C8.7984 20.833 8.33203 21.2994 8.33203 21.8747C8.33203 22.45 8.7984 22.9163 9.3737 22.9163Z" stroke="white" stroke-width="1.75" stroke-linecap="round" stroke-linejoin="round"/>
<path d="M20.8346 22.9163C21.4099 22.9163 21.8763 22.45 21.8763 21.8747C21.8763 21.2994 21.4099 20.833 20.8346 20.833C20.2593 20.833 19.793 21.2994 19.793 21.8747C19.793 22.45 20.2593 22.9163 20.8346 22.9163Z" stroke="white" stroke-width="1.75" stroke-linecap="round" stroke-linejoin="round"/>
<path d="M1.04297 1.04199H5.20964L8.0013 14.9899C8.09656 15.4695 8.35746 15.9003 8.73833 16.2069C9.1192 16.5135 9.59578 16.6764 10.0846 16.667H20.2096C20.6985 16.6764 21.1751 16.5135 21.5559 16.2069C21.9368 15.9003 22.1977 15.4695 22.293 14.9899L23.9596 6.25033H6.2513" stroke="white" stroke-width="1.75" stroke-linecap="round" stroke-linejoin="round"/>
</svg>
