<svg width="49" height="32" viewBox="0 0 49 32" fill="none" xmlns="http://www.w3.org/2000/svg">
<path fill-rule="evenodd" clip-rule="evenodd" d="M4.72266 0H44.7227C46.9318 0 48.7227 1.79086 48.7227 4V28C48.7227 30.2091 46.9318 32 44.7227 32H4.72266C2.51352 32 0.722656 30.2091 0.722656 28V4C0.722656 1.79086 2.51352 0 4.72266 0ZM12.8127 13.25L14.7227 20.64H17.2527L21.1327 11.39H18.6127L16.1227 17.68L15.1227 12.33C15.0341 11.7863 14.5635 11.3878 14.0127 11.39H9.94266L9.88266 11.66C10.699 11.8197 11.4919 12.0818 12.2427 12.44C12.5624 12.5903 12.7791 12.8983 12.8127 13.25ZM20.1727 20.64L22.1727 11.39H24.5727L22.5727 20.64H20.1727ZM24.2109 20.29C25.0584 20.6208 25.9612 20.7871 26.8709 20.78H26.9009C29.4109 20.78 31.0609 19.54 31.0709 17.62C31.0769 16.1569 29.8712 15.5208 28.9047 15.0109C28.2595 14.6705 27.7209 14.3864 27.7209 13.95C27.7209 13.62 28.0309 13.27 28.7209 13.18C29.5167 13.1325 30.3106 13.2982 31.0209 13.66L31.4409 11.66C30.7246 11.3914 29.966 11.2525 29.2009 11.25C26.8809 11.25 25.2009 12.51 25.2009 14.31C25.1809 15.64 26.3609 16.36 27.2909 16.82C28.2209 17.28 28.5309 17.57 28.5309 17.97C28.5309 18.59 27.7909 18.88 27.1009 18.88C26.2439 18.8975 25.3968 18.6943 24.6409 18.29L24.2109 20.29ZM37.2814 20.6401L36.9914 19.2601H33.9514L33.4614 20.6401H30.9414L34.5314 12.0701C34.6969 11.6624 35.0914 11.3942 35.5314 11.3901H37.5314L39.4714 20.6401H37.2814ZM36.6127 17.36H34.6127L35.8827 13.89L36.6127 17.36Z" fill="white"/>
</svg>
