<svg width="49" height="32" viewBox="0 0 49 32" fill="none" xmlns="http://www.w3.org/2000/svg">
<path fill-rule="evenodd" clip-rule="evenodd" d="M3.22266 8.5H4.92266L7.32266 14.1H5.82266L5.32266 13H2.72266L2.22266 14.2H0.722656L3.22266 8.5ZM3.62109 10.6002L3.12109 11.9002H4.92109L4.42109 10.6002L4.02109 9.7002L3.62109 10.6002Z" fill="white"/>
<path d="M13.3211 9.6L13.0211 10.4L11.7211 14.1H10.5211L9.22109 10.4L8.92109 9.6V14.1H7.62109V8.5H9.82109L10.9211 11.8L11.1211 12.4L11.3211 11.8L12.4211 8.5H14.6211V14.1H13.3211V9.6Z" fill="white"/>
<path d="M17.0227 9.7V10.7H20.1227V11.9H17.0227V12.9H20.2227V14.1H15.7227V8.5H20.2227V9.7H17.0227Z" fill="white"/>
<path fill-rule="evenodd" clip-rule="evenodd" d="M26.2211 10.3C26.3211 11.2 25.6211 12 24.7211 12.1L26.5211 14.1H24.8211L23.1211 12.1H22.5211V14.1H21.1211V8.50003H24.2211C25.2211 8.30003 26.1211 9.00003 26.2211 10V10.3ZM24.1211 9.70003H22.5211H22.4211V10.9H24.0211C24.3211 10.9 24.6211 10.7 24.7211 10.4V10.3C24.7211 10.1 24.7211 10 24.6211 9.90003L24.5211 9.80003C24.4711 9.80003 24.4461 9.77503 24.4211 9.75003C24.3961 9.72503 24.3711 9.70003 24.3211 9.70003H24.2211H24.1211Z" fill="white"/>
<rect x="26.8242" y="8.5" width="1.4" height="5.6" fill="white"/>
<path d="M31.7225 8.4999H33.3225V9.6999H31.8225C31.0225 9.6999 30.4225 10.2999 30.3225 10.9999C30.3225 11.0999 30.3225 11.1999 30.3225 11.1999V11.2999C30.2225 12.0999 30.7225 12.7999 31.5225 12.8999C31.6225 12.8999 31.7225 12.8999 31.7225 12.8999H32.1225L31.7225 14.0999H31.6225C30.2225 14.1999 29.0225 13.0999 29.0225 11.6999C29.0225 11.5999 29.0225 11.3999 29.0225 11.2999V11.1999C28.9225 9.7999 29.9225 8.5999 31.3225 8.3999C31.4225 8.4999 31.6225 8.4999 31.7225 8.4999Z" fill="white"/>
<path fill-rule="evenodd" clip-rule="evenodd" d="M34.8219 8.5H36.6219L39.1219 14.1H37.6219L37.1219 13H34.4219L33.9219 14.2H32.4219L34.8219 8.5ZM35.3203 10.6002L34.8203 11.9002H36.6203L36.0203 10.6002L35.7203 9.7002L35.3203 10.6002Z" fill="white"/>
<path d="M40.6242 14.2H39.3242V8.5H40.9242L42.9242 11.5L43.3242 12.1V8.5H44.7242V14.1H43.0242L41.0242 11L40.6242 10.4V14.2Z" fill="white"/>
<path d="M12.2219 20.4002V21.4002H15.4219V22.5002H12.2219V23.5002H15.4219V24.7002H10.9219V19.2002H15.4219V20.4002H12.2219Z" fill="white"/>
<path d="M15.7211 24.8002L17.9211 22.0002L15.6211 19.2002H17.3211L18.7211 20.9002L20.1211 19.2002H21.7211L19.5211 22.0002L21.8211 24.8002H20.1211L18.7211 23.0002L17.3211 24.8002H15.7211Z" fill="white"/>
<path fill-rule="evenodd" clip-rule="evenodd" d="M25.1234 19.1999C26.1234 19.0999 27.0234 19.7999 27.1234 20.7999C27.1234 20.8999 27.1234 20.9999 27.0234 20.9999C27.0234 21.9999 26.2234 22.8999 25.2234 22.8999H25.0234H23.3234V24.7999H22.0234V19.1999H25.1234ZM23.4219 21.6998H25.0219C25.4219 21.6998 25.7219 21.3998 25.7219 20.9998C25.7219 20.5998 25.4219 20.2998 25.0219 20.2998H23.4219V21.6998Z" fill="white"/>
<path fill-rule="evenodd" clip-rule="evenodd" d="M32.9242 20.6998C33.0242 21.6998 32.3242 22.5998 31.3242 22.6998L33.1242 24.6998H31.4242L29.7242 22.6998H29.1242V24.6998H27.8242V19.0998H30.9242C31.9242 18.9998 32.8242 19.6998 32.9242 20.6998ZM29.2227 21.5999H30.8227C31.1227 21.6999 31.4227 21.3999 31.5227 21.0999V20.9999C31.5227 20.6999 31.2227 20.3999 30.9227 20.3999H30.8227H29.2227V21.5999Z" fill="white"/>
<path d="M34.9234 20.4002V21.4002H38.0234V22.5002H34.9234V23.5002H38.1234V24.7002H33.5234V19.2002H38.1234L38.0234 20.4002H34.9234Z" fill="white"/>
<path d="M42.3211 23.2001C42.4211 22.9001 42.2211 22.7001 41.9211 22.6001C41.8211 22.6001 41.8211 22.6001 41.7211 22.6001H40.4211C39.5211 22.7001 38.8211 22.1001 38.6211 21.2001C38.6211 21.1001 38.6211 21.0001 38.6211 20.9001C38.6211 19.9001 39.4211 19.1001 40.3211 19.1001C40.4211 19.1001 40.5211 19.1001 40.5211 19.1001H43.4211L42.9211 20.3001H40.5211C40.2211 20.2001 40.0211 20.4001 39.9211 20.7001C39.8211 21.0001 40.0211 21.2001 40.3211 21.3001C40.4211 21.3001 40.4211 21.3001 40.5211 21.3001H41.8211C42.6211 21.2001 43.4211 21.8001 43.6211 22.6001C43.6211 22.7001 43.6211 22.8001 43.6211 22.9001C43.6211 23.9001 42.9211 24.7001 41.9211 24.7001C41.8211 24.7001 41.8211 24.7001 41.7211 24.7001H38.8211V23.5001H41.7211C42.0211 23.7001 42.2211 23.5001 42.3211 23.2001Z" fill="white"/>
<path d="M48.7227 17.9H19.6227L18.7227 19.1L17.9227 17.9H9.62266V26.1H17.9227L18.8227 24.9L19.6227 26.1H24.6227V24.3H25.2227C25.7227 24.3 26.2227 24.2 26.7227 24.1V26.2H30.1227V24.7L31.3227 26.2H46.9227C47.5227 26.2 48.2227 26 48.7227 25.7V23.8C48.4227 24.6 47.7227 25 46.9227 24.9H44.0227V23.7H46.9227C47.2227 23.8 47.4227 23.6 47.5227 23.3C47.6227 23 47.4227 22.8 47.1227 22.7C47.0227 22.7 47.0227 22.7 46.9227 22.7H45.6227C44.7227 22.8 44.0227 22.2 43.8227 21.3C43.8227 21.2 43.8227 21.1 43.8227 21C43.8227 20 44.5227 19.2 45.5227 19.2C45.6227 19.2 45.7227 19.2 45.7227 19.2H48.7227V28C48.7227 30.2 46.9227 32 44.7227 32H4.72266C2.52266 32 0.722656 30.2 0.722656 28V15.4H3.02266L3.52266 14.2H4.62266L5.12266 15.4H23.4227V13.9L24.6227 15.4H29.4227V14.7C30.1227 15.2 30.9227 15.5 31.8227 15.4H34.7227L35.2227 14.2H36.3227L36.8227 15.4H41.7227V13.8L42.7227 15.4H46.1227V7.2H42.5227V8.9L41.4227 7.2H38.3227V9.3L37.3227 7.2H32.0227C31.1227 7.2 30.2227 7.5 29.5227 8V7.2H11.7227L11.1227 9L10.5227 7.2H6.52266V9.3L5.62266 7.2H2.32266L0.722656 11V4C0.722656 1.8 2.52266 0 4.72266 0H44.7227C46.9227 0 48.7227 1.8 48.7227 4V17.9Z" fill="white"/>
<path fill-rule="evenodd" clip-rule="evenodd" d="M24.1211 10.8999C24.4211 10.9999 24.7211 10.7999 24.8211 10.3999C24.7211 10.6999 24.4211 10.9999 24.1211 10.8999Z" fill="white"/>
<path d="M48.2198 20.3997H45.7198C45.4198 20.2997 45.2198 20.4997 45.1198 20.7997C45.0198 21.0997 45.2198 21.2997 45.5198 21.3997C45.6198 21.3997 45.6198 21.3997 45.7198 21.3997H47.0198C47.7198 21.2997 48.3198 21.6997 48.6198 22.2997V19.1997L48.2198 20.3997Z" fill="white"/>
</svg>
