<svg width="11" height="12" viewBox="0 0 11 12" fill="none" xmlns="http://www.w3.org/2000/svg">
<path d="M8.06484 11.31C7.14318 11.8096 6.20385 12 5.08026 12C2.33059 12 0 9.93067 0 6.62049C0 3.06875 2.39746 0 6.12067 0C9.03805 0 11 2.10359 11 4.98287C11 7.56875 9.59106 9.08565 8.01553 9.08565C7.34376 9.08565 6.72389 8.62026 6.77454 7.56887H6.70768C6.12078 8.58588 5.34928 9.08565 4.34309 9.08565C3.371 9.08565 2.53276 8.27546 2.53276 6.91389C2.53276 4.77581 4.17515 2.8272 6.50574 2.8272C7.22647 2.8272 7.86403 2.98229 8.29964 3.18947L7.7303 6.31019C7.47906 7.62072 7.67965 8.22361 8.23267 8.24132C9.08859 8.25822 10.0443 7.086 10.0443 5.08611C10.0443 2.58588 8.5851 0.793287 5.98537 0.793287C3.25349 0.793287 0.955651 3.0169 0.955651 6.51736C0.955651 9.39664 2.78377 11.1719 5.26452 11.1719C6.22028 11.1719 7.10907 10.9655 7.79705 10.5689L8.06484 11.31ZM7.14329 3.86192C6.97524 3.80995 6.69 3.7412 6.30516 3.7412C4.82924 3.7412 3.63868 5.17245 3.63868 6.84444C3.63868 7.60324 4.00732 8.15486 4.74584 8.15486C5.71803 8.15486 6.60671 6.87882 6.79097 5.81042L7.14329 3.86192Z" fill="#181B19"/>
</svg>
