<svg width="32" height="30" viewBox="0 0 32 30" fill="none" xmlns="http://www.w3.org/2000/svg">
<path d="M16.0088 30C15.7534 30.0017 15.5005 29.949 15.2653 29.845C15.0301 29.7411 14.8178 29.588 14.6412 29.3952L3.08604 17.3183C2.12334 16.3517 1.35457 15.1942 0.8247 13.9136C0.294834 12.6329 0.0144801 11.2548 0 9.85961C0.00462636 8.56275 0.255 7.27969 0.736516 6.08444C1.21803 4.8892 1.92122 3.8054 2.80554 2.89567C4.55192 1.08353 6.90077 0.0469736 9.3613 0.00257592C11.8218 -0.0418218 14.2036 0.909369 16.0088 2.65742C17.7593 0.936695 20.0759 -0.0146703 22.4789 0.000171066C23.7257 -0.00402628 24.961 0.249623 26.1136 0.74657C27.2661 1.24352 28.3133 1.97391 29.1946 2.89567C30.0805 3.80417 30.7846 4.88769 31.2663 6.08321C31.7479 7.27874 31.9973 8.56244 32 9.85961C31.9849 11.253 31.706 12.6294 31.1794 13.9096C30.6527 15.1898 29.8887 16.3483 28.9315 17.3183L17.3765 29.3952C17.015 29.7778 16.5232 29.9952 16.0088 30Z" fill="white"/>
</svg>
