<svg width="167" height="19" viewBox="0 0 167 19" fill="none" xmlns="http://www.w3.org/2000/svg">
<g clip-path="url(#clip0_433_364)">
<path d="M26.8109 9.93812C26.8109 12.6553 24.497 14.6575 21.6574 14.6575C18.8178 14.6575 16.5039 12.6553 16.5039 9.93812C16.5039 7.20182 18.8178 5.21875 21.6574 5.21875C24.497 5.21875 26.8109 7.20182 26.8109 9.93812ZM24.5549 9.93812C24.5549 8.24017 23.2139 7.07841 21.6574 7.07841C20.1009 7.07841 18.7599 8.24017 18.7599 9.93812C18.7599 11.6191 20.1009 12.7978 21.6574 12.7978C23.2139 12.7978 24.5549 11.6169 24.5549 9.93812Z" fill="white"/>
<path d="M37.9281 9.9391C37.9281 12.6562 35.6142 14.6585 32.7746 14.6585C29.935 14.6585 27.6211 12.6562 27.6211 9.9391C27.6211 7.20493 29.935 5.21973 32.7746 5.21973C35.6142 5.21973 37.9281 7.2028 37.9281 9.9391ZM35.6721 9.9391C35.6721 8.24115 34.3311 7.07939 32.7746 7.07939C31.2181 7.07939 29.8771 8.24115 29.8771 9.9391C29.8771 11.62 31.2181 12.7988 32.7746 12.7988C34.3311 12.7988 35.6721 11.6179 35.6721 9.9391Z" fill="white"/>
<path d="M48.5828 5.50387V13.9766C48.5828 17.4619 46.3453 18.8854 43.7003 18.8854C41.2104 18.8854 39.7118 17.3555 39.1467 16.1044L41.1108 15.3533C41.4605 16.1214 42.3175 17.0278 43.6979 17.0278C45.3911 17.0278 46.4403 16.0682 46.4403 14.2617V13.583H46.3615C45.8566 14.1553 44.8838 14.6554 43.6562 14.6554C41.0876 14.6554 38.7344 12.6 38.7344 9.95515C38.7344 7.29119 41.0876 5.21875 43.6562 5.21875C44.8815 5.21875 45.8543 5.71877 46.3615 6.27412H46.4403V5.506H48.5828V5.50387ZM46.6001 9.95515C46.6001 8.29336 45.3934 7.07841 43.8578 7.07841C42.3013 7.07841 40.9973 8.29336 40.9973 9.95515C40.9973 11.5999 42.3013 12.7978 43.8578 12.7978C45.3934 12.7978 46.6001 11.5999 46.6001 9.95515Z" fill="white"/>
<path d="M52.1144 0.538086V14.3685H49.9141V0.538086H52.1144Z" fill="white"/>
<path d="M60.6897 11.4916L62.4407 12.564C61.8756 13.3321 60.5136 14.6555 58.1604 14.6555C55.242 14.6555 53.0625 12.5831 53.0625 9.93617C53.0625 7.12965 55.2606 5.2168 57.9079 5.2168C60.5739 5.2168 61.8779 7.16582 62.304 8.21907L62.538 8.75526L55.6705 11.3682C56.1963 12.315 57.0139 12.798 58.1604 12.798C59.3092 12.798 60.106 12.2788 60.6897 11.4916ZM55.2999 9.79361L59.8906 8.04246C59.6381 7.45307 58.8784 7.04242 57.9844 7.04242C56.8379 7.04242 55.242 7.97225 55.2999 9.79361Z" fill="white"/>
<path d="M8.17634 8.71105V6.70883H15.5209C15.5927 7.05778 15.6298 7.47057 15.6298 7.9174C15.6298 9.41959 15.1828 11.2771 13.7421 12.6006C12.3408 13.9411 10.5504 14.656 8.17866 14.656C3.78255 14.656 0.0859375 11.3665 0.0859375 7.32801C0.0859375 3.28952 3.78255 0 8.17866 0C10.6106 0 12.3431 0.876637 13.6448 2.01924L12.1069 3.43208C11.1735 2.62778 9.90884 2.00222 8.17634 2.00222C4.96612 2.00222 2.45539 4.37893 2.45539 7.32801C2.45539 10.2771 4.96612 12.6538 8.17634 12.6538C10.2586 12.6538 11.4445 11.8857 12.2042 11.1878C12.8203 10.6218 13.2256 9.81323 13.3854 8.70892L8.17634 8.71105Z" fill="white"/>
</g>
<path d="M70.4409 2.16728L75.188 12.9148L79.9527 2.16728H81.4025V14.345H80.3152V9.04234L80.4036 3.60585L75.6123 14.345H74.7725L69.9989 3.64767L70.0873 9.00889V14.345H69V2.16728H70.4409Z" fill="white"/>
<path d="M87.449 12.9064L90.2425 5.29535H91.3828L87.2988 15.884L87.0866 16.3523C86.5621 17.4508 85.7518 18 84.6556 18C84.4022 18 84.1311 17.961 83.8423 17.8829L83.8335 17.0549L84.3816 17.1051C84.9002 17.1051 85.3186 16.9824 85.6368 16.7371C85.961 16.4973 86.235 16.0819 86.459 15.4909L86.9275 14.2697L83.3208 5.29535H84.4788L87.449 12.9064Z" fill="white"/>
<path d="M97.6769 14.345V2.16728H101.478C102.857 2.16728 103.903 2.43771 104.616 2.97857C105.329 3.51385 105.686 4.30563 105.686 5.35389C105.686 5.98397 105.503 6.53319 105.138 7.00157C104.778 7.46437 104.283 7.79613 103.653 7.99686C104.401 8.15299 105.002 8.50148 105.456 9.04234C105.916 9.5832 106.146 10.2077 106.146 10.9158C106.146 11.992 105.777 12.8339 105.041 13.4417C104.31 14.0439 103.29 14.345 101.982 14.345H97.6769ZM98.7642 8.49033V13.4752H102.026C102.957 13.4752 103.694 13.2521 104.236 12.8061C104.784 12.3544 105.058 11.7299 105.058 10.9326C105.058 10.1798 104.796 9.58599 104.272 9.15107C103.753 8.71058 103.034 8.49033 102.115 8.49033H98.7642ZM98.7642 7.62886H101.734C102.642 7.61213 103.343 7.4114 103.838 7.02666C104.339 6.63635 104.59 6.0704 104.59 5.3288C104.59 4.54818 104.33 3.97386 103.812 3.60585C103.299 3.23227 102.521 3.04548 101.478 3.04548H98.7642V7.62886Z" fill="white"/>
<path d="M114.685 13.1992C114.049 14.0746 113.032 14.5123 111.635 14.5123C110.616 14.5123 109.841 14.2335 109.31 13.6759C108.78 13.1127 108.509 12.2819 108.497 11.1835V5.29535H109.549V11.058C109.549 12.781 110.286 13.6424 111.759 13.6424C113.291 13.6424 114.261 13.043 114.667 11.8442V5.29535H115.728V14.345H114.703L114.685 13.1992Z" fill="white"/>
<path d="M124.215 12.045C124.215 11.5487 124.002 11.15 123.578 10.8489C123.16 10.5478 122.526 10.3136 121.677 10.1464C120.829 9.97351 120.169 9.77836 119.697 9.5609C119.232 9.33786 118.884 9.06743 118.654 8.74961C118.43 8.43178 118.318 8.04705 118.318 7.5954C118.318 6.88169 118.634 6.29343 119.264 5.83063C119.895 5.36226 120.702 5.12807 121.686 5.12807C122.753 5.12807 123.607 5.37899 124.25 5.88082C124.898 6.37707 125.222 7.02666 125.222 7.82959H124.161C124.161 7.29988 123.926 6.85938 123.454 6.5081C122.989 6.15682 122.399 5.98118 121.686 5.98118C120.991 5.98118 120.431 6.12894 120.007 6.42446C119.588 6.71441 119.379 7.09357 119.379 7.56194C119.379 8.01359 119.553 8.36487 119.901 8.61579C120.254 8.86113 120.894 9.08695 121.819 9.29326C122.75 9.49956 123.445 9.71981 123.905 9.954C124.371 10.1882 124.715 10.4698 124.939 10.7987C125.163 11.1277 125.275 11.5264 125.275 11.9948C125.275 12.7587 124.948 13.3692 124.294 13.8265C123.646 14.2837 122.797 14.5123 121.748 14.5123C120.634 14.5123 119.73 14.2586 119.034 13.7512C118.345 13.2382 118 12.5914 118 11.8108H119.061C119.102 12.3962 119.361 12.8535 119.839 13.1824C120.322 13.5058 120.958 13.6675 121.748 13.6675C122.485 13.6675 123.08 13.5142 123.534 13.2075C123.988 12.9009 124.215 12.5133 124.215 12.045Z" fill="white"/>
<path d="M128.847 14.345H127.786V5.29535H128.847V14.345ZM127.6 2.67747C127.6 2.48789 127.665 2.32898 127.795 2.20073C127.924 2.06691 128.101 2 128.325 2C128.549 2 128.726 2.06691 128.855 2.20073C128.991 2.32898 129.059 2.48789 129.059 2.67747C129.059 2.86705 128.991 3.02596 128.855 3.15421C128.726 3.28245 128.549 3.34658 128.325 3.34658C128.101 3.34658 127.924 3.28245 127.795 3.15421C127.665 3.02596 127.6 2.86705 127.6 2.67747Z" fill="white"/>
<path d="M132.736 5.29535L132.772 6.84266C133.131 6.28507 133.579 5.8613 134.115 5.57135C134.652 5.27583 135.244 5.12807 135.892 5.12807C136.918 5.12807 137.681 5.40129 138.182 5.94773C138.683 6.49416 138.936 7.31382 138.942 8.40669V14.345H137.89V8.39833C137.884 7.58982 137.701 6.98763 137.342 6.59174C136.988 6.19585 136.42 5.99791 135.636 5.99791C134.982 5.99791 134.401 6.19307 133.894 6.58338C133.393 6.96811 133.022 7.48946 132.78 8.14741V14.345H131.728V5.29535H132.736Z" fill="white"/>
<path d="M145.386 14.5123C144.573 14.5123 143.836 14.3227 143.176 13.9435C142.522 13.5644 142.012 13.0375 141.647 12.3628C141.282 11.6825 141.099 10.9214 141.099 10.0795V9.71981C141.099 8.84997 141.276 8.06656 141.629 7.36958C141.989 6.67259 142.487 6.12615 143.123 5.73027C143.76 5.3288 144.449 5.12807 145.192 5.12807C146.353 5.12807 147.272 5.50444 147.95 6.25719C148.633 7.00436 148.975 8.02753 148.975 9.32671V9.88709H142.151V10.0795C142.151 11.1054 142.46 11.9613 143.079 12.6472C143.704 13.3274 144.488 13.6675 145.43 13.6675C145.996 13.6675 146.494 13.57 146.924 13.3748C147.361 13.1796 147.755 12.8674 148.109 12.4381L148.772 12.9148C147.994 13.9798 146.865 14.5123 145.386 14.5123ZM145.192 5.98118C144.396 5.98118 143.724 6.25719 143.176 6.8092C142.634 7.36121 142.304 8.10281 142.186 9.03398H147.923V8.92525C147.894 8.05541 147.632 7.34727 147.137 6.80084C146.642 6.2544 145.993 5.98118 145.192 5.98118Z" fill="white"/>
<path d="M156.763 12.045C156.763 11.5487 156.551 11.15 156.127 10.8489C155.708 10.5478 155.075 10.3136 154.226 10.1464C153.378 9.97351 152.718 9.77836 152.246 9.5609C151.781 9.33786 151.433 9.06743 151.203 8.74961C150.979 8.43178 150.867 8.04705 150.867 7.5954C150.867 6.88169 151.182 6.29343 151.813 5.83063C152.444 5.36226 153.251 5.12807 154.235 5.12807C155.302 5.12807 156.156 5.37899 156.799 5.88082C157.447 6.37707 157.771 7.02666 157.771 7.82959H156.71C156.71 7.29988 156.475 6.85938 156.003 6.5081C155.537 6.15682 154.948 5.98118 154.235 5.98118C153.54 5.98118 152.98 6.12894 152.555 6.42446C152.137 6.71441 151.928 7.09357 151.928 7.56194C151.928 8.01359 152.102 8.36487 152.449 8.61579C152.803 8.86113 153.442 9.08695 154.368 9.29326C155.299 9.49956 155.994 9.71981 156.454 9.954C156.919 10.1882 157.264 10.4698 157.488 10.7987C157.712 11.1277 157.824 11.5264 157.824 11.9948C157.824 12.7587 157.497 13.3692 156.843 13.8265C156.195 14.2837 155.346 14.5123 154.297 14.5123C153.183 14.5123 152.278 14.2586 151.583 13.7512C150.894 13.2382 150.549 12.5914 150.549 11.8108H151.61C151.651 12.3962 151.91 12.8535 152.388 13.1824C152.871 13.5058 153.507 13.6675 154.297 13.6675C155.034 13.6675 155.629 13.5142 156.083 13.2075C156.536 12.9009 156.763 12.5133 156.763 12.045Z" fill="white"/>
<path d="M165.939 12.045C165.939 11.5487 165.727 11.15 165.303 10.8489C164.884 10.5478 164.251 10.3136 163.402 10.1464C162.553 9.97351 161.893 9.77836 161.422 9.5609C160.956 9.33786 160.609 9.06743 160.379 8.74961C160.155 8.43178 160.043 8.04705 160.043 7.5954C160.043 6.88169 160.358 6.29343 160.989 5.83063C161.619 5.36226 162.427 5.12807 163.411 5.12807C164.478 5.12807 165.332 5.37899 165.975 5.88082C166.623 6.37707 166.947 7.02666 166.947 7.82959H165.886C165.886 7.29988 165.65 6.85938 165.179 6.5081C164.713 6.15682 164.124 5.98118 163.411 5.98118C162.716 5.98118 162.156 6.12894 161.731 6.42446C161.313 6.71441 161.104 7.09357 161.104 7.56194C161.104 8.01359 161.278 8.36487 161.625 8.61579C161.979 8.86113 162.618 9.08695 163.544 9.29326C164.475 9.49956 165.17 9.71981 165.63 9.954C166.095 10.1882 166.44 10.4698 166.664 10.7987C166.888 11.1277 167 11.5264 167 11.9948C167 12.7587 166.673 13.3692 166.019 13.8265C165.37 14.2837 164.522 14.5123 163.473 14.5123C162.359 14.5123 161.454 14.2586 160.759 13.7512C160.069 13.2382 159.725 12.5914 159.725 11.8108H160.785C160.827 12.3962 161.086 12.8535 161.563 13.1824C162.047 13.5058 162.683 13.6675 163.473 13.6675C164.21 13.6675 164.805 13.5142 165.259 13.2075C165.712 12.9009 165.939 12.5133 165.939 12.045Z" fill="white"/>
<defs>
<clipPath id="clip0_433_364">
<rect width="63" height="18.9996" fill="white"/>
</clipPath>
</defs>
</svg>
