<svg width="22" height="20" viewBox="0 0 22 20" fill="none" xmlns="http://www.w3.org/2000/svg">
<path d="M10.9362 20C10.7618 20.0012 10.589 19.966 10.4283 19.8967C10.2677 19.8274 10.1226 19.7253 10.002 19.5968L2.1082 11.5455C1.45054 10.9011 0.925358 10.1295 0.563385 9.27572C0.201413 8.42195 0.0098919 7.50319 0 6.57307C0.00316045 5.7085 0.174201 4.85312 0.503143 4.0563C0.832085 3.25947 1.31246 2.53694 1.91658 1.93044C3.1096 0.722355 4.71419 0.0313157 6.39508 0.00171728C8.07596 -0.0278812 9.70303 0.606246 10.9362 1.77161C12.1321 0.624463 13.7146 -0.00978017 15.3562 0.000114044C16.208 -0.00268418 17.0518 0.166415 17.8392 0.497713C18.6266 0.829011 19.3419 1.31594 19.944 1.93044C20.5492 2.53612 21.0302 3.25846 21.3592 4.05548C21.6882 4.85249 21.8586 5.70829 21.8605 6.57307C21.8501 7.502 21.6596 8.41963 21.2999 9.27307C20.9401 10.1265 20.4182 10.8988 19.7643 11.5455L11.8706 19.5968C11.6236 19.8519 11.2877 19.9968 10.9362 20Z" fill="#6BD85B"/>
</svg>
