<svg width="49" height="32" viewBox="0 0 49 32" fill="none" xmlns="http://www.w3.org/2000/svg">
<path fill-rule="evenodd" clip-rule="evenodd" d="M4.72266 0H44.7227C46.9318 0 48.7227 1.79086 48.7227 4V28C48.7227 30.2091 46.9318 32 44.7227 32H4.72266C2.51352 32 0.722656 30.2091 0.722656 28V4C0.722656 1.79086 2.51352 0 4.72266 0ZM22.9416 25.4598C20.2269 23.0643 18.6687 19.6203 18.6616 15.9998C18.6452 12.3742 20.2075 8.92101 22.9416 6.53982C18.4781 4.27308 13.0375 5.43456 9.88885 9.3264C6.74017 13.2182 6.74017 18.7814 9.88885 22.6732C13.0375 26.5651 18.4781 27.7266 22.9416 25.4598ZM24.7216 7.66016C27.2795 9.67177 28.7729 12.746 28.7729 16.0002C28.7729 19.2543 27.2795 22.3285 24.7216 24.3402C22.1601 22.3308 20.6641 19.2557 20.6641 16.0002C20.6641 12.7446 22.1601 9.66956 24.7216 7.66016ZM26.5044 25.4601C27.9863 26.2096 29.6237 26.6001 31.2844 26.6001C35.6666 26.5926 39.5924 23.8894 41.1626 19.7982C42.7328 15.7069 41.6236 11.0712 38.3716 8.13388C35.1196 5.19651 30.3953 4.56309 26.4844 6.54007C27.0722 7.03811 27.6083 7.59426 28.0844 8.20007C32.2061 13.4656 31.5136 21.0304 26.5044 25.4601Z" fill="white"/>
</svg>
