<svg width="12" height="11" viewBox="0 0 12 11" fill="none" xmlns="http://www.w3.org/2000/svg">
<path opacity="0.8" d="M7.16683 7.38879L7.16684 7.3888L7.16789 7.38788C7.28447 7.28487 7.46173 7.24934 7.61569 7.29573C7.98024 7.41078 9.06844 7.77449 10.0648 8.33047C10.5632 8.6086 11.0361 8.9335 11.3838 9.29757C11.7317 9.66184 11.95 10.0607 11.95 10.4878C11.95 10.741 11.7385 10.95 11.4783 10.95H0.521739C0.261525 10.95 0.05 10.741 0.05 10.4878C0.05 10.0607 0.26828 9.66184 0.616185 9.29757C0.96391 8.9335 1.43683 8.6086 1.93523 8.33047C2.93156 7.77449 4.01976 7.41078 4.38431 7.29573C4.53693 7.24974 4.70227 7.28384 4.83353 7.38909C4.83366 7.38919 4.83378 7.38929 4.8339 7.38939L5.96795 8.33639L6 8.36315L6.03205 8.33639L7.16683 7.38879ZM1.28121 9.94105L1.20063 10.0256H1.31739H10.6826H10.8011L10.7184 9.94066C10.4257 9.64018 9.93064 9.32347 9.3686 9.03314C8.80542 8.74223 8.17058 8.47559 7.5946 8.27639L7.56786 8.26714L7.54617 8.2853L6.30704 9.32254L6.30673 9.3228C6.12976 9.47338 5.87024 9.47338 5.69327 9.3228L5.69296 9.32254L4.45383 8.2853L4.43239 8.26735L4.40587 8.27623C3.8297 8.46907 3.19471 8.73256 2.6314 9.02354C2.06923 9.31394 1.57405 9.63394 1.28121 9.94105ZM9.45869 3.45752C9.45869 5.3372 7.90357 6.86503 6 6.86503C4.09643 6.86503 2.54131 5.3372 2.54131 3.45752C2.54131 1.57785 4.09643 0.0500125 6 0.0500125C7.90357 0.0500125 9.45869 1.57785 9.45869 3.45752ZM8.51522 3.4447C8.51522 2.07181 7.38344 0.961641 6 0.961641C4.61656 0.961641 3.48478 2.07181 3.48478 3.4447C3.48478 4.8176 4.61656 5.92776 6 5.92776C7.38344 5.92776 8.51522 4.8176 8.51522 3.4447Z" fill="#181B19" stroke="white" stroke-width="0.1"/>
</svg>
