<svg width="128" height="128" viewBox="0 0 128 128" fill="none" xmlns="http://www.w3.org/2000/svg">
<rect width="128" height="128" rx="64" fill="#376996"/>
<circle cx="64" cy="64" r="55" stroke="white" stroke-width="6"/>
<path d="M40.0698 74.2677H29.6643L27.6403 82.0004H19.5703L31.377 44.2192H38.3571L50.2416 82.0004H42.0937L40.0698 74.2677ZM31.3251 67.9103H38.3831L34.8541 54.4429L31.3251 67.9103Z" fill="#F48121"/>
<path d="M64.0723 71.621L70.4297 44.2192H78.9408L68.0424 82.0004H60.1021L49.2815 44.2192H57.7408L64.0723 71.621Z" fill="#F48121"/>
<path d="M98.4542 72.088C98.4542 70.5484 98.0564 69.3894 97.2606 68.6109C96.4821 67.8152 95.055 66.9934 92.9791 66.1458C89.1906 64.71 86.466 63.0319 84.8052 61.1117C83.1445 59.1742 82.3142 56.8908 82.3142 54.2613C82.3142 51.0783 83.4386 48.5266 85.6875 46.6064C87.9537 44.6689 90.8253 43.7002 94.3025 43.7002C96.6205 43.7002 98.6878 44.1932 100.504 45.1793C102.321 46.148 103.713 47.5233 104.682 49.3051C105.668 51.0869 106.161 53.1109 106.161 55.3771H98.558C98.558 53.6126 98.1775 52.2719 97.4163 51.355C96.6724 50.4209 95.5912 49.9538 94.1727 49.9538C92.8407 49.9538 91.8027 50.3517 91.0589 51.1475C90.315 51.9259 89.9431 52.9812 89.9431 54.3132C89.9431 55.3511 90.3583 56.2939 91.1886 57.1416C92.019 57.972 93.4894 58.8369 95.5999 59.7365C99.2846 61.0685 101.957 62.7033 103.618 64.6408C105.296 66.5783 106.135 69.0434 106.135 72.0361C106.135 75.323 105.088 77.8919 102.995 79.7429C100.902 81.5939 98.0564 82.5194 94.4582 82.5194C92.019 82.5194 89.796 82.0177 87.7893 81.0144C85.7826 80.011 84.2084 78.5752 83.0667 76.7069C81.9422 74.8386 81.38 72.633 81.38 70.09H89.0349C89.0349 72.2697 89.4587 73.8525 90.3064 74.8386C91.154 75.8246 92.5379 76.3177 94.4582 76.3177C97.1222 76.3177 98.4542 74.9078 98.4542 72.088Z" fill="#F48121"/>
</svg>
